<?xml version="1.0" encoding="UTF-8"?>
<svg id="a" data-name="Layer 1" xmlns="http://www.w3.org/2000/svg" width="1000" height="381.545" viewBox="0 0 1000 381.545">
  <path d="M195.463,16.826s68.953,141.326,42.17,160.701c-26.784,19.375-92.129-160.701-92.129-160.701l-41.352,15.422L0,361.349h44.833c50.718-136.197,56.365,18.557,56.365,18.557l238.083-30.27L230.412,0l-34.949,16.826Z" fill="#fff"/>
  <path d="M274.937,43.253l103.108,322.898h23.598s-26.126-67.115,12.642-89.87c38.768-22.755,18.541,84.278,18.541,84.278l34.554,5.592L550.994,0l-276.056,43.253ZM413.98,197.416c-7.766,0-14.061-12.499-14.061-27.917s6.295-27.918,14.061-27.918,14.061,12.499,14.061,27.918-6.296,27.917-14.061,27.917Z" fill="#fff"/>
  <path d="M629.149,56.959c-.715-27.16,22.256-17.036,50.421,41.028l20.929-35.246s-36.492-83.652-82.804-48.433c-59.552,45.287,14.174,105.433,0,187.481-5.805,33.605-72.884,48.119-44.029-21.092l19.416-37.813-23.629-3.322s-43.226,70.945-46.8,132.831c-3.574,61.886,20.919,113.819,126.702,108.816,105.782-5.003,126.865-83.26,99.158-163.434-33.593-97.205-117.695-97.457-119.362-160.818Z" fill="#fff"/>
  <path d="M910.074,0s-7.618,138.317-44.492,126.249c-36.874-12.068-59.989-114.375-59.989-114.375L718.795,0l106.075,354.553h30.169c-7.191-42.632-5.654-116.699,25.235-113.081,26.88,3.148,7.189,121.324,7.189,121.324l38.789-10.94L1000,16.826,910.074,0Z" fill="#fff"/>
</svg>